<!DOCTYPE svg PUBLIC "-//W3C//DTD SVG 1.1//EN" "http://www.w3.org/Graphics/SVG/1.1/DTD/svg11.dtd">
<!-- Uploaded to: SVG Repo, www.svgrepo.com, Transformed by: SVG Repo Mixer Tools -->
<svg version="1.1" id="Capa_1" xmlns="http://www.w3.org/2000/svg" xmlns:xlink="http://www.w3.org/1999/xlink" viewBox="0 0 512 512" xml:space="preserve" width="64px" height="64px" fill="#151414" stroke="#151414">
<g id="SVGRepo_bgCarrier" stroke-width="0"/>
<g id="SVGRepo_tracerCarrier" stroke-linecap="round" stroke-linejoin="round"/>
<g id="SVGRepo_iconCarrier"> <path style="fill:#f2f5f8;" d="M503.916,397.661c0,16.188-13.122,29.311-29.309,29.311H37.393 c-16.188,0-29.309-13.124-29.309-29.311V114.336c0-16.188,13.122-29.31,29.309-29.31h437.212c16.188,0,29.309,13.123,29.309,29.31 v283.326L503.916,397.661L503.916,397.661z"/> <rect x="8.08" y="306.53" style="fill:#0c0d0d;" width="495.83" height="69.74"/> <path style="fill:#202121;" d="M503.916,384.357H8.084c-4.466,0-8.084-3.618-8.084-8.084v-69.743c0-4.466,3.618-8.084,8.084-8.084 h495.832c4.465,0,8.084,3.618,8.084,8.084v69.743C512,380.74,508.38,384.357,503.916,384.357z M16.168,368.188h479.663v-53.575 H16.168V368.188z"/> <g style="opacity:0.15;"> <path style="fill:#202121;" d="M28.922,397.661V114.336c0-16.188,13.124-29.31,29.311-29.31h-20.84 c-16.187,0-29.309,13.123-29.309,29.31v283.326c0,16.188,13.122,29.311,29.309,29.311h20.84 C42.047,426.974,28.922,413.849,28.922,397.661z"/> </g> <g> <path style="fill:#202121;" d="M474.607,435.057H37.393C16.775,435.057,0,418.281,0,397.661V114.336 c0-20.62,16.775-37.394,37.393-37.394h437.212c20.619,0,37.393,16.775,37.393,37.394v10.979c0,4.466-3.62,8.084-8.084,8.084 c-4.466,0-8.084-3.618-8.084-8.084v-10.979c0-11.704-9.522-21.226-21.225-21.226H37.393c-11.703,0-21.225,9.522-21.225,21.226 v283.326c0,11.705,9.522,21.227,21.225,21.227h437.212c11.703,0,21.225-9.522,21.225-21.227V151.547 c0-4.466,3.618-8.084,8.084-8.084c4.465,0,8.084,3.618,8.084,8.084v246.117C512,418.281,495.226,435.057,474.607,435.057z"/> <path style="fill:#202121;" d="M365.428,185.289h-95.609c-4.466,0-8.084-3.618-8.084-8.084s3.618-8.084,8.084-8.084h95.609 c4.466,0,8.084,3.618,8.084,8.084C373.512,181.672,369.892,185.289,365.428,185.289z"/> <path style="fill:#202121;" d="M446.09,218.855H269.818c-4.466,0-8.084-3.618-8.084-8.084s3.618-8.084,8.084-8.084H446.09 c4.466,0,8.084,3.618,8.084,8.084S450.556,218.855,446.09,218.855z"/> <path style="fill:#202121;" d="M123.566,138.021c-32.03,0-57.996,25.966-57.996,57.997c0,32.03,25.966,57.996,57.996,57.996 c32.031,0,57.997-25.966,57.997-57.996C181.562,163.986,155.596,138.021,123.566,138.021z M159.111,196.017 c0,15.119-9.575,28.729-23.187,33.768v-67.537C149.536,167.286,159.111,180.392,159.111,196.017z M110.223,162.247v67.537 c-13.608-5.039-23.186-18.143-23.186-33.768S96.615,167.286,110.223,162.247z"/> </g> <g> <path style="fill:#FFFFFF;" d="M87.038,196.017c0,15.625,9.577,28.729,23.186,33.768v-67.537 C96.615,167.286,87.038,180.392,87.038,196.017z"/> <path style="fill:#FFFFFF;" d="M159.111,196.017c0-15.625-9.575-28.729-23.187-33.768v67.537 C149.536,224.745,159.111,211.135,159.111,196.017z"/> <path style="fill:#FFFFFF;" d="M188.977,144.241c-0.043-0.044-0.085-0.091-0.126-0.137c-0.856-0.528-1.726-1.035-2.606-1.53 c-7.869-4.551-16.693-7.518-25.883-8.597c-2.433-0.454-4.867-0.459-7.295-0.459h-0.507h-29.233h-0.501 c-34.779,0-63.003,25.706-63.003,63.004c0,15.119,5.545,29.231,15.121,39.815l0.834,0.839 c11.556,13.071,28.569,21.338,47.548,21.338h29.233c34.275,0,65.522-27.721,65.522-61.992 C217.771,173.651,205.899,155.142,188.977,144.241z M123.566,254.012c-32.03,0-57.996-25.966-57.996-57.996 c0-32.031,25.966-57.997,57.996-57.997c32.031,0,57.997,25.966,57.997,57.997C181.562,228.047,155.596,254.012,123.566,254.012z"/> </g> <path style="fill:#202121;" d="M234.248,196.303c-0.361-26.635-13.304-50.272-35.56-65.03c-0.43-0.331-0.878-0.64-1.343-0.926 c-0.96-0.593-1.974-1.19-3.095-1.819c-9.615-5.545-20.496-9.185-31.507-10.547c-3.695-0.629-6.998-0.629-9.678-0.629h-0.507h-29.233 h-0.501c-21.343,0-41.166,7.845-55.816,22.091c-15.061,14.646-23.356,34.918-23.356,57.081c0,18.917,6.854,36.909,19.301,50.663 c0.171,0.19,0.346,0.375,0.527,0.556l0.516,0.52c15.043,16.797,36.637,26.421,59.327,26.421h29.233 c20.58,0,41.212-8.186,56.607-22.456c16.176-14.996,25.084-34.779,25.084-55.705C234.249,196.452,234.248,196.376,234.248,196.303z M152.559,258.516h-29.233c-18.98,0-35.993-8.267-47.548-21.338l-0.834-0.839c-9.577-10.583-15.121-24.696-15.121-39.815 c0-37.299,28.225-63.004,63.003-63.004h0.501h29.232h0.507c2.43,0,4.863,0.005,7.295,0.459c9.189,1.079,18.015,4.046,25.883,8.597 c0.881,0.495,1.751,1.001,2.606,1.53c0.041,0.046,0.083,0.093,0.126,0.137c16.923,10.9,28.795,29.41,29.104,52.282 C218.081,230.793,186.834,258.516,152.559,258.516z"/> </g>
</svg>